<svg width="44" height="171" viewBox="0 0 44 171" fill="none" xmlns="http://www.w3.org/2000/svg">
<g opacity="0.8" clip-path="url(#clip0_355_9681)">
<path d="M42.8476 68.7408C44.8155 66.0274 44.2111 62.2325 41.4975 60.2647C38.7839 58.2969 34.9889 58.9013 33.021 61.6147C31.0531 64.3282 31.6575 68.123 34.3711 70.0908C37.0846 72.0586 40.8797 71.4542 42.8476 68.7408Z" fill="#40AD89"/>
<path d="M43.8607 99.7948C44.5942 96.5242 42.5373 93.2782 39.2665 92.5448C35.9957 91.8113 32.7496 93.8681 32.0161 97.1387C31.2826 100.409 33.3395 103.655 36.6102 104.389C39.881 105.122 43.1272 103.065 43.8607 99.7948Z" fill="#716E68"/>
<path d="M42.8464 135.242C44.8143 132.529 44.2098 128.734 41.4963 126.766C38.7827 124.798 34.9876 125.403 33.0197 128.116C31.0518 130.83 31.6563 134.624 34.3699 136.592C37.0834 138.56 40.8785 137.956 42.8464 135.242Z" fill="#40AD89"/>
<path d="M42.8438 168.495C44.8117 165.781 44.2072 161.986 41.4936 160.019C38.7801 158.051 34.985 158.655 33.0171 161.369C31.0492 164.082 31.6537 167.877 34.3672 169.845C37.0808 171.813 40.8759 171.208 42.8438 168.495Z" fill="#43B495"/>
<path d="M10.3617 69.4697C12.7319 67.0996 12.7319 63.2568 10.3616 60.8867C7.9914 58.5166 4.14851 58.5166 1.77827 60.8868C-0.591971 63.2569 -0.591988 67.0996 1.77825 69.4697C4.14849 71.8398 7.99142 71.8398 10.3617 69.4697Z" fill="#40AD89"/>
<path d="M11.9778 99.7709C12.7427 96.5075 10.7171 93.2419 7.45348 92.4771C4.18989 91.7123 0.924198 93.7378 0.15933 97.0012C-0.605538 100.265 1.42005 103.53 4.68365 104.295C7.94724 105.06 11.213 103.034 11.9778 99.7709Z" fill="#716E68"/>
<path d="M10.3595 135.973C12.7297 133.603 12.7297 129.761 10.3594 127.39C7.98921 125.02 4.14631 125.02 1.77607 127.39C-0.594168 129.761 -0.594185 133.603 1.77605 135.973C4.14629 138.343 7.98922 138.343 10.3595 135.973Z" fill="#40AD89"/>
<path d="M10.3602 169.225C12.7305 166.855 12.7305 163.012 10.3602 160.642C7.98997 158.272 4.14704 158.272 1.7768 160.642C-0.593435 163.012 -0.593418 166.855 1.77682 169.225C4.14706 171.595 7.98999 171.595 10.3602 169.225Z" fill="#43B495"/>
<path d="M8.00321 -0.00116732L6.32129 1.68066L35.9987 31.3566L37.6807 29.6747L8.00321 -0.00116732Z" fill="#43B495"/>
<path d="M35.9987 0.00389593L6.32129 29.6798L8.00321 31.3616L37.6807 1.68573L35.9987 0.00389593Z" fill="#43B495"/>
</g>
<defs>
<clipPath id="clip0_355_9681">
<rect width="44" height="171" fill="white"/>
</clipPath>
</defs>
</svg>
