<?xml version="1.0" encoding="UTF-8"?>
<svg id="Layer_2" data-name="Layer 2" xmlns="http://www.w3.org/2000/svg" viewBox="0 0 229.77 92.54">
  <defs>
    <style>
      .cls-1 {
        fill: #fff;
      }

      .cls-2 {
        fill: #00aeef;
      }
    </style>
  </defs>
  <g id="Layer_1-2" data-name="Layer 1">
    <g>
      <path class="cls-2" d="M101,38.87c.12-10.17,3.08-18.22,8.96-25.19.52-.62,1.1-1.22,1.75-1.71,2.26-1.68,5.32-1.37,7.14.68,1.78,2,1.77,4.93-.13,7.01-3.61,3.94-5.89,8.5-6.8,13.78-2.28,13.27,5.65,26.17,18.59,30.19,15.43,4.79,31.81-5.29,34.39-21.23,1.27-7.85-.63-14.95-5.52-21.23-.36-.46-.68-.96-1.08-1.38-1.49-1.59-1.49-4.19-.52-5.72,1.1-1.74,3.4-2.78,5.46-2.43,1.49.25,2.77.9,3.72,2.11,8.79,11.12,11.37,23.51,6.51,36.87-4.86,13.34-14.63,21.5-28.62,24.07-20.32,3.73-39.71-9.94-43.28-30.26-.38-2.18-.46-4.41-.58-5.57Z"/>
      <path class="cls-1" d="M153.1,74.77c.37-.16.73-.32,1.1-.47,4.37-1.8,8.3-4.3,11.69-7.59.83-.8,1.66-1.1,2.79-1.1,12.22.03,24.44-.24,36.64.11,7.9.23,13.59-6.29,14.31-12.68.75-6.74-4.4-16.21-13.9-15.93-5.66.17-11.34.07-17,.11-3.03.02-5.32-1.24-6.72-3.92-1.37-2.63-1.06-5.22.64-7.6,5.26-7.37,10.54-14.73,15.81-22.09.48-.66.95-1.34,1.5-1.94,1.84-2,4.57-2.24,6.62-.61,2.01,1.59,2.48,4.44.98,6.6-.39.57-.79,1.13-1.19,1.69-1.17,1.62-2.36,3.23-3.55,4.83-2.64,3.54-3.64,5.12-5.39,7.5-.23.32-1.09,1.36-2.15,2.83-.41.57-.73,1.04-.93,1.33-.07.1-.52.68-.32,1.22.2.54.92.79,1.42.78.44-.01,1.1-.03,1.89-.04,5.98-.09,10.76.13,11.56.19,10.36.74,18.92,8.7,20.57,18.94,1.95,12.06-5.56,23.92-17.39,27.32-1.83.52-3.79.82-5.69.83-17.18.08-34.36.06-51.55.08-.57,0-1.14,0-1.72,0,0-.13-.02-.26-.02-.39Z"/>
      <path class="cls-1" d="M65.38,46.14c0,3.86.02,7.72,0,11.57-.09,12.81-5.96,22.38-16.75,28.9-16,9.67-42.42,3.22-47.8-21.52-2.12-9.76-.22-18.8,5.9-26.83,1.93-2.53,4.33-4.57,6.83-6.52,1.92-1.5,4.58-1.23,5.95.55,1.45,1.88,1.14,4.28-.92,5.88-5.22,4.05-8.01,9.47-9.11,15.86-2.03,11.69,4.18,21.56,15.44,25.35,11.75,3.96,22.47-2.45,26.81-8.96,2.58-3.87,3.8-8.11,3.8-12.73,0-8.18-.01-16.37.01-24.55,0-1.16.05-2.35.34-3.47.59-2.3,2.77-3.86,4.92-3.7,2.34.17,4.33,2.11,4.57,4.57.1.98.03,1.98.03,2.98,0,4.21,0,8.42,0,12.62Z"/>
      <path class="cls-1" d="M89.52,63.49c0,1.18.96,2.14,2.14,2.14,0,0,.01,0,.02,0,5.61,0,11.22,0,16.83,0,.83,0,1.54.09,2.2.73,3.64,3.52,7.82,6.35,12.56,8.14.21.08.4.2.68.33-1.14.37-33,.48-41.67.21-1.16-.04-2.07-.98-2.07-2.14v-.17c0-18.93,0-37.86,0-56.79,0-1.34-.05-2.69-.09-4.03-.08-2.84,1.89-5.13,4.54-5.24,2.53-.11,4.69,2,4.86,4.76.03.52.01,1.05.01,1.58,0,16.77,0,33.54,0,50.31v.18Z"/>
      <path class="cls-2" d="M140.06,87.25c.02-2.9,2.34-5.21,5.25-5.22,3.01-.01,5.31,2.34,5.26,5.37-.06,2.94-2.37,5.19-5.31,5.14-2.91-.04-5.2-2.38-5.19-5.29Z"/>
      <path class="cls-1" d="M41.52,32.31c.03,3.04-2.09,5.23-5.1,5.28-3.04.04-5.41-2.25-5.4-5.23.01-2.82,2.44-5.26,5.27-5.28,2.88-.02,5.2,2.3,5.23,5.24Z"/>
      <path class="cls-2" d="M131.98,82.03c2.91.03,5.22,2.37,5.2,5.28-.02,2.93-2.32,5.22-5.25,5.23-2.99,0-5.33-2.37-5.28-5.37.05-2.89,2.41-5.17,5.33-5.14Z"/>
    </g>
  </g>
</svg>