<?xml version="1.0" encoding="UTF-8"?>
<svg id="Layer_2" data-name="Layer 2" xmlns="http://www.w3.org/2000/svg" viewBox="0 0 501.96 271.4">
  <defs>
    <style>
      .cls-1 {
        fill: #fff;
      }

      .cls-2 {
        fill: #00aeef;
      }
    </style>
  </defs>
  <g id="Layer_1-2" data-name="Layer 1">
    <g>
      <g>
        <path class="cls-2" d="M220.65,84.92c.26-22.22,6.72-39.81,19.57-55.03,1.14-1.36,2.41-2.67,3.82-3.73,4.93-3.67,11.61-2.98,15.6,1.48,3.89,4.36,3.86,10.78-.29,15.31-7.89,8.61-12.87,18.58-14.85,30.1-4.98,28.99,12.35,57.17,40.62,65.95,33.71,10.46,69.49-11.55,75.13-46.37,2.78-17.16-1.37-32.65-12.06-46.38-.78-1.01-1.49-2.09-2.36-3.02-3.25-3.48-3.25-9.14-1.14-12.49,2.4-3.8,7.42-6.07,11.94-5.3,3.26.55,6.05,1.97,8.13,4.61,19.2,24.3,24.85,51.35,14.22,80.55-10.61,29.14-31.97,46.98-62.53,52.58-44.38,8.14-86.75-21.72-94.55-66.1-.84-4.76-1.01-9.63-1.26-12.17Z"/>
        <path class="cls-1" d="M334.46,163.36c.8-.34,1.59-.7,2.39-1.03,9.55-3.93,18.12-9.39,25.53-16.59,1.8-1.75,3.62-2.41,6.09-2.4,26.69.07,53.39-.53,80.05.25,17.25.51,29.7-13.75,31.25-27.69,1.64-14.71-9.6-35.41-30.37-34.8-12.37.37-24.77.15-37.15.25-6.62.05-11.63-2.71-14.69-8.57-3-5.75-2.32-11.39,1.4-16.61,11.48-16.11,23.02-32.18,34.54-48.26,1.04-1.45,2.08-2.92,3.28-4.23,4.02-4.38,9.99-4.89,14.47-1.34,4.39,3.48,5.41,9.7,2.14,14.43-.86,1.24-1.73,2.47-2.61,3.69-2.55,3.54-5.15,7.05-7.75,10.55-5.76,7.74-7.95,11.18-11.77,16.39-.51.69-2.37,2.97-4.69,6.18-.89,1.24-1.6,2.26-2.04,2.9-.16.21-1.13,1.49-.69,2.66.44,1.19,2.01,1.73,3.1,1.7.97-.02,2.4-.06,4.13-.08,13.06-.19,23.5.29,25.26.41,22.64,1.61,41.34,19.02,44.95,41.37,4.25,26.34-12.15,52.26-37.99,59.68-3.99,1.15-8.27,1.8-12.42,1.82-37.54.17-75.07.14-112.61.17-1.25,0-2.5,0-3.75,0-.02-.29-.03-.57-.05-.86Z"/>
        <path class="cls-1" d="M142.84,100.8c0,8.43.05,16.86-.01,25.28-.21,27.98-13.01,48.89-36.59,63.13-34.96,21.12-92.67,7.03-104.42-47.02-4.63-21.32-.48-41.07,12.88-58.61,4.21-5.53,9.45-9.99,14.91-14.24,4.2-3.28,10.01-2.69,12.99,1.19,3.17,4.12,2.49,9.34-2.02,12.84-11.4,8.85-17.49,20.69-19.91,34.65-4.43,25.54,9.13,47.1,33.72,55.38,25.67,8.65,49.08-5.34,58.57-19.58,5.63-8.45,8.3-17.71,8.3-27.81,0-17.88-.03-35.75.03-53.63,0-2.53.12-5.14.74-7.57,1.29-5.04,6.05-8.43,10.75-8.09,5.12.37,9.45,4.62,9.98,9.98.21,2.15.06,4.33.06,6.5,0,9.19,0,18.39,0,27.58Z"/>
        <path class="cls-1" d="M195.58,138.71c0,2.58,2.09,4.67,4.67,4.67.01,0,.03,0,.04,0,12.25,0,24.51.02,36.76-.02,1.82,0,3.37.2,4.81,1.6,7.94,7.7,17.08,13.88,27.43,17.78.46.17.88.43,1.49.73-2.5.81-72.09,1.06-91.03.47-2.53-.08-4.53-2.15-4.53-4.67v-.38c0-41.36,0-82.72,0-124.08,0-2.93-.11-5.87-.2-8.8-.18-6.21,4.13-11.2,9.92-11.44,5.53-.24,10.25,4.36,10.62,10.39.07,1.14.02,2.3.02,3.45,0,36.64,0,73.27,0,109.91v.4Z"/>
        <path class="cls-2" d="M305.99,190.61c.03-6.34,5.11-11.39,11.46-11.41,6.57-.02,11.61,5.12,11.48,11.73-.12,6.43-5.18,11.33-11.61,11.24-6.36-.09-11.37-5.2-11.33-11.56Z"/>
        <path class="cls-1" d="M90.71,70.58c.07,6.65-4.56,11.43-11.14,11.53-6.65.1-11.82-4.92-11.8-11.43.02-6.17,5.32-11.48,11.51-11.53,6.29-.05,11.36,5.02,11.42,11.44Z"/>
        <path class="cls-2" d="M288.34,179.2c6.36.06,11.4,5.19,11.36,11.54-.05,6.4-5.08,11.41-11.47,11.43-6.54.02-11.65-5.18-11.53-11.73.12-6.32,5.27-11.3,11.64-11.23Z"/>
      </g>
      <g>
        <path class="cls-1" d="M114.68,271.4v-37.99h7.06v37.99h-7.06ZM118.51,259.31l.48-7.09c2.53,0,4.72-.53,6.57-1.58,1.85-1.05,3.37-2.47,4.58-4.25,1.2-1.78,2.1-3.79,2.68-6.03.58-2.24.87-4.55.87-6.94h7.17c0,3.37-.5,6.61-1.5,9.71-1,3.1-2.46,5.87-4.37,8.31-1.92,2.43-4.26,4.36-7.02,5.77s-5.91,2.11-9.44,2.11ZM133.94,271.4l-7.62-16.83,6.58-2.73,9.77,19.56h-8.72Z"/>
        <path class="cls-1" d="M161.51,271.4l10.97-37.99h8.67l10.97,37.99h-7.62l-7.44-28.71h-.48l-7.44,28.71h-7.62ZM167.05,264.2v-6.53h19.26v6.53h-19.26Z"/>
        <path class="cls-1" d="M223.32,260.06l-12.71-26.65h7.89l7.71,17.66h.48l7.71-17.66h7.89l-12.71,26.65h-6.26ZM222.92,271.4v-18.73h7.06v18.73h-7.06Z"/>
        <path class="cls-1" d="M272.96,260.06l-12.71-26.65h7.89l7.71,17.66h.48l7.71-17.66h7.89l-12.71,26.65h-6.26ZM272.56,271.4v-18.73h7.06v18.73h-7.06Z"/>
        <path class="cls-1" d="M310.42,271.4l10.97-37.99h8.67l10.97,37.99h-7.62l-7.44-28.71h-.48l-7.44,28.71h-7.62ZM315.96,264.2v-6.53h19.26v6.53h-19.26Z"/>
        <path class="cls-1" d="M362.82,271.4v-37.99h6.8v37.99h-6.8ZM377.29,271.4l-6.69-29.7h-2.92v-8.29h5.75l6.69,29.7h1.79v8.29h-4.63ZM381.12,271.4v-37.99h6.8v37.99h-6.8Z"/>
      </g>
    </g>
  </g>
</svg>